<svg version="1.1" id="Layer_1" xmlns="http://www.w3.org/2000/svg" xmlns:xlink="http://www.w3.org/1999/xlink" 
                                        width="30px" height="30px" viewBox="0 0 40 40" enable-background="new 0 0 40 40" xml:space="preserve">
                                    <g>
                                        <path fill = "#000000" fill-rule="evenodd" clip-rule="evenodd" d="M20,29.616c-6.911,0-13.412-3.681-17-9.615c3.588-5.935,10.089-9.617,17-9.617
                                            c6.91,0,13.412,3.682,17,9.617C33.412,25.936,26.91,29.616,20,29.616L20,29.616z M19.998,12.254
                                            c-5.817,0-11.309,2.848-14.687,7.618l-0.088,0.125l0.088,0.124c3.378,4.77,8.87,7.618,14.687,7.618
                                            c5.82,0,11.311-2.849,14.687-7.618l0.089-0.124l-0.089-0.125C31.309,15.103,25.818,12.254,19.998,12.254L19.998,12.254z"/>
                                        <path  fill = "#000000" fill-rule="evenodd" clip-rule="evenodd" d="M19.987,13.521c-3.574,0-6.478,2.9-6.478,6.479c0,3.579,2.904,6.478,6.478,6.478
                                            c3.581,0,6.478-2.898,6.478-6.478C26.465,16.42,23.568,13.521,19.987,13.521z M19.987,24.857c-2.68,0-4.858-2.175-4.858-4.858
                                            s2.178-4.859,4.858-4.859c2.686,0,4.858,2.175,4.858,4.859S22.673,24.857,19.987,24.857z"/>
                                    </g>
                                </svg>